# xmcd CD database file
#
# Track frame offsets:
#	151
#	28242
#	49359
#	77164
#	109412
#	145892
#	176953
#	206028
#	232416
#	271214
#	286983
#
# Disc length: 4311 seconds
#
# Revision: 0
# Processed by: cddbd v1.5.2PL0 Copyright (c) Steve Scherf et al.
# Submitted via: CDex 1.70beta2
#
DISCID=b310d50b
DTITLE=Angel Canales - Greatest Hits
DYEAR=1990
DGENRE=Salsa
TTITLE0=Bomba Carambomba
TTITLE1=Esta es la manera de expresar mi sentimiento
TTITLE2=Saraguey Santoja
TTITLE3=La vida es una caja de sorpresas
TTITLE4=El cantante y la orquesta
TTITLE5=El sentimiento Latino en NY
TTITLE6=Panamá soberana
TTITLE7=Perico Macumba
TTITLE8=Ana Isaoco
TTITLE9=Sabor, los rumberos nuevos
TTITLE10=Lejos de ti(Puerto Rico)
EXTD=YEAR: 1990
EXTT0=
EXTT1=
EXTT2=
EXTT3=
EXTT4=
EXTT5=
EXTT6=
EXTT7=
EXTT8=
EXTT9=
EXTT10=
PLAYORDER=
